HIERARCHY
ROOT Hips
{
	OFFSET 0 0 0
	CHANNELS 6 Xposition Yposition Zposition Yrotation Xrotation Zrotation
	JOINT Spine
	{
		OFFSET -0 8.18458 -2.60884
		CHANNELS 3 Yrotation Xrotation Zrotation
		JOINT Spine1
		{
			OFFSET -0 7.64996 0
			CHANNELS 3 Yrotation Xrotation Zrotation
			JOINT Spine2
			{
				OFFSET -0 7.64996 0
				CHANNELS 3 Yrotation Xrotation Zrotation
				JOINT Spine3
				{
					OFFSET -0 7.64996 0
					CHANNELS 3 Yrotation Xrotation Zrotation
					JOINT Neck
					{
						OFFSET -0 20.2406 3.60884
						CHANNELS 3 Yrotation Xrotation Zrotation
						JOINT Head
						{
							OFFSET -0 10.2307 0
							CHANNELS 3 Yrotation Xrotation Zrotation
							End Site
							{
								OFFSET 0 15 0
							}
						}
					}
					JOINT LeftShoulder
					{
						OFFSET 1.70512 8.71402 3.41024
						CHANNELS 3 Yrotation Xrotation Zrotation
						JOINT LeftArm
						{
							OFFSET 16.1177 0 0
							CHANNELS 3 Yrotation Xrotation Zrotation
							JOINT LeftForeArm
							{
								OFFSET 25.6257 0 0
								CHANNELS 3 Yrotation Xrotation Zrotation
								JOINT LeftHand
								{
									OFFSET 24.0244 0 0
									CHANNELS 3 Yrotation Xrotation Zrotation
									End Site
									{
										OFFSET 15 0 0
									}
								}
							}
						}
					}
					JOINT RightShoulder
					{
						OFFSET -1.70512 8.71402 3.41024
						CHANNELS 3 Yrotation Xrotation Zrotation
						JOINT RightArm
						{
							OFFSET -16.1177 0 0
							CHANNELS 3 Yrotation Xrotation Zrotation
							JOINT RightForeArm
							{
								OFFSET -25.6257 0 0
								CHANNELS 3 Yrotation Xrotation Zrotation
								JOINT RightHand
								{
									OFFSET -24.0244 0 0
									CHANNELS 3 Yrotation Xrotation Zrotation
									End Site
									{
										OFFSET -15 0 0
									}
								}
							}
						}
					}
				}
			}
		}
	}
	JOINT LeftUpLeg
	{
		OFFSET 10.2307 -3.41024 2
		CHANNELS 3 Yrotation Xrotation Zrotation
		JOINT LeftLeg
		{
			OFFSET -0 -40.9418 2.38717
			CHANNELS 3 Yrotation Xrotation Zrotation
			JOINT LeftFoot
			{
				OFFSET -0 -40.8162 -2.38717
				CHANNELS 3 Yrotation Xrotation Zrotation
				JOINT LeftToeBase
				{
					OFFSET -0 -6.58348 15.3461
					CHANNELS 3 Yrotation Xrotation Zrotation
					End Site
					{
						OFFSET 0 0 5
					}
				}
			}
		}
	}
	JOINT RightUpLeg
	{
		OFFSET -10.2307 -3.41024 2
		CHANNELS 3 Yrotation Xrotation Zrotation
		JOINT RightLeg
		{
			OFFSET -0 -40.9418 2.38717
			CHANNELS 3 Yrotation Xrotation Zrotation
			JOINT RightFoot
			{
				OFFSET -0 -40.8162 -2.38717
				CHANNELS 3 Yrotation Xrotation Zrotation
				JOINT RightToeBase
				{
					OFFSET -0 -6.58348 15.3461
					CHANNELS 3 Yrotation Xrotation Zrotation
					End Site
					{
						OFFSET 0 0 5
					}
				}
			}
		}
	}
}
MOTION
Frames: 18
Frame Time: 0.00833333
0 94.754197 0 0 0 0 0 0 0 0 0 0 0 0 0 0 0 0 0 0 0 0 0 0 0 0 0 0 0 0 0 0 0 0 0 0 0 0 0 0 0 0 0 0 0 0 0 0 0 0 0 0 0 0 0 0 0 0 0 0 0 0 0 0 0 0 0 0 0 0 0 0
-4.949749 93.812128 -41.776233 -2.738887 -2.934338 -1.140591 0.105512 1.473371 -0.027131 0.169227 1.583446 -0.052541 0.317440 1.631033 -0.107116 0.360600 1.676551 -0.040458 0.896407 -4.277799 0.917184 0.816211 -5.512696 -4.342426 9.367250 3.717007 -4.668319 -17.948784 2.347726 -54.201988 -18.966929 -1.471286 8.518833 13.039552 18.867179 -17.409997 -7.583206 4.157242 6.088224 16.748181 6.325624 52.583470 29.226731 3.789051 -1.429736 -10.010837 6.382677 14.853513 0.807948 6.183562 5.755404 0.000000 3.502127 0.000000 5.204373 -2.173173 0.466450 0.000000 -5.784869 0.000000 -4.361817 3.773722 -4.054886 0.000000 7.552741 0.000000 -6.961085 -0.531851 3.322106 0.000000 -10.248044 0.000000
-4.955371 93.811243 -41.773331 -2.726631 -2.934606 -1.139931 0.113166 1.478481 -0.045984 0.175762 1.574600 -0.057440 0.314082 1.642261 -0.101276 0.357264 1.673713 -0.037243 0.892278 -4.260482 0.930921 0.816043 -5.505717 -4.363133 9.356808 3.730420 -4.668182 -17.957273 2.353295 -54.170995 -18.985701 -1.477764 8.520764 13.055593 18.769039 -17.407316 -7.600128 4.151133 6.087286 16.782614 6.356669 52.592698 29.233202 3.773979 -1.445131 -10.055038 6.363704 14.802411 0.789419 6.186322 5.757767 0.000000 3.498977 0.000000 5.208066 -2.173939 0.437514 0.000000 -5.803616 0.000000 -4.370517 3.773803 -4.052696 0.000000 7.562388 0.000000 -6.971080 -0.541631 3.369061 0.000000 -10.249377 0.000000
-4.958868 93.811853 -41.772009 -2.724725 -2.934644 -1.139140 0.116560 1.483313 -0.053458 0.178892 1.581044 -0.064312 0.314015 1.638472 -0.106304 0.356788 1.676638 -0.037775 0.910363 -4.276048 0.934760 0.823971 -5.461550 -4.378232 9.364666 3.717916 -4.667426 -17.945036 2.350802 -54.147635 -18.986102 -1.492584 8.529783 13.065251 18.705632 -17.425670 -7.608972 4.144313 6.098692 16.775910 6.343392 52.586596 29.222397 3.834606 -1.451057 -10.031682 6.368820 14.867224 0.794130 6.185555 5.759133 0.000000 3.500701 0.000000 5.211239 -2.172368 0.441617 0.000000 -5.779214 0.000000 -4.371385 3.775003 -4.051946 0.000000 7.564086 0.000000 -6.971954 -0.538211 3.371649 0.000000 -10.261215 0.000000
-4.963465 93.812445 -41.770712 -2.718654 -2.936486 -1.139343 0.122577 1.483735 -0.069443 0.183721 1.583333 -0.069823 0.310836 1.647108 -0.103964 0.353345 1.683073 -0.036735 0.929324 -4.265240 0.942082 0.833206 -5.460252 -4.391196 9.371383 3.707647 -4.666238 -17.981703 2.375007 -54.130101 -18.974296 -1.488486 8.563429 13.067165 18.630245 -17.413222 -7.613983 4.131630 6.113487 16.802501 6.367494 52.563338 29.224416 3.799341 -1.446656 -10.022229 6.359863 14.877678 0.786228 6.187551 5.761319 0.000000 3.503757 0.000000 5.216016 -2.168528 0.409039 0.000000 -5.777559 0.000000 -4.360752 3.776887 -4.050519 0.000000 7.575200 0.000000 -6.978360 -0.551178 3.371137 0.000000 -10.226468 0.000000
-4.967049 93.808905 -41.767960 -2.715580 -2.935395 -1.143327 0.118167 1.488838 -0.074993 0.177949 1.580433 -0.073646 0.339100 1.653770 -0.103214 0.380568 1.683871 -0.030489 0.925805 -4.250529 0.933550 0.829596 -5.452177 -4.384704 9.329878 3.707216 -4.653379 -17.972631 2.366161 -54.133102 -18.980220 -1.589829 8.585860 13.063496 18.627393 -17.452181 -7.650934 4.127905 6.096362 16.770566 6.348613 52.570917 29.234377 3.833086 -1.446653 -10.018905 6.351377 14.909086 0.775578 6.193844 5.767301 0.000000 3.493524 0.000000 5.212685 -2.173029 0.440269 0.000000 -5.781981 0.000000 -4.363814 3.774632 -4.042040 0.000000 7.577375 0.000000 -7.004406 -0.559725 3.405722 0.000000 -10.231880 0.000000
-4.971985 93.809216 -41.765491 -2.713240 -2.936206 -1.141395 0.130812 1.482168 -0.084006 0.190202 1.592424 -0.080848 0.334341 1.658380 -0.108852 0.375325 1.691958 -0.032034 0.953030 -4.243201 0.940137 0.841842 -5.456481 -4.386978 9.339193 3.689716 -4.647651 -18.002863 2.375270 -54.105198 -18.958464 -1.579240 8.574839 13.082845 18.575336 -17.387926 -7.654426 4.133167 6.108456 16.774928 6.345085 52.559773 29.242935 3.836785 -1.453802 -10.020552 6.316334 14.942301 0.780606 6.193038 5.769779 0.000000 3.497133 0.000000 5.211134 -2.174301 0.426534 0.000000 -5.784783 0.000000 -4.368328 3.776997 -4.040854 0.000000 7.582807 0.000000 -6.989933 -0.568441 3.329661 0.000000 -10.223392 0.000000
-4.974287 93.809637 -41.762875 -2.712740 -2.936562 -1.140782 0.139269 1.480046 -0.092064 0.198267 1.597090 -0.085445 0.333716 1.664282 -0.109881 0.374675 1.701961 -0.033694 0.951900 -4.262672 0.935302 0.840835 -5.438010 -4.385031 9.329541 3.691539 -4.639704 -17.990152 2.356369 -54.090737 -18.945380 -1.561519 8.583964 13.108120 18.527113 -17.430593 -7.662257 4.116277 6.115419 16.777141 6.347117 52.555712 29.233863 3.844509 -1.469596 -10.011810 6.340748 15.010135 0.780077 6.193367 5.769692 0.000000 3.499923 0.000000 5.210365 -2.174769 0.445933 0.000000 -5.800530 0.000000 -4.364220 3.777875 -4.040333 0.000000 7.583238 0.000000 -6.991735 -0.554627 3.402646 0.000000 -10.257563 0.000000
-4.978434 93.809106 -41.761209 -2.716391 -2.936663 -1.135921 0.151193 1.490729 -0.107352 0.208750 1.590512 -0.092805 0.334800 1.668974 -0.110097 0.375257 1.706184 -0.032078 0.949430 -4.250994 0.925995 0.836754 -5.456043 -4.352412 9.332517 3.693099 -4.635980 -18.006671 2.365160 -54.058222 -18.963373 -1.647747 8.565865 13.147779 18.594004 -17.361772 -7.674917 4.111853 6.126311 16.791751 6.368252 52.541629 29.256419 3.802320 -1.478451 -10.041277 6.404706 15.013785 0.787065 6.190276 5.767192 0.000000 3.508376 0.000000 5.214802 -2.175295 0.434605 0.000000 -5.795602 0.000000 -4.353803 3.782839 -4.041147 0.000000 7.574929 0.000000 -7.002681 -0.560782 3.362612 0.000000 -10.256712 0.000000
-4.980274 93.810468 -41.759146 -2.719142 -2.939448 -1.145889 0.152731 1.510154 -0.098454 0.208312 1.588689 -0.089866 0.343179 1.670105 -0.120374 0.383409 1.687936 -0.049371 0.964268 -4.234704 0.950178 0.845593 -5.442413 -4.378526 9.342940 3.716236 -4.635705 -18.019715 2.362617 -54.011942 -18.968319 -1.700867 8.549689 13.183283 18.532227 -17.344397 -7.674301 4.107406 6.144046 16.786893 6.393016 52.533060 29.259032 3.816962 -1.472515 -10.063791 6.423821 14.982970 0.771033 6.200236 5.778021 0.000000 3.502270 0.000000 5.230014 -2.178627 0.429056 0.000000 -5.796780 0.000000 -4.351095 3.778937 -4.026542 0.000000 7.592793 0.000000 -7.013101 -0.557945 3.343605 0.000000 -10.251302 0.000000
-4.981976 93.807910 -41.756097 -2.714104 -2.937777 -1.148302 0.161435 1.504623 -0.098623 0.216301 1.594820 -0.089731 0.346278 1.668107 -0.120792 0.386988 1.705109 -0.058635 0.946467 -4.248971 0.940954 0.837872 -5.432623 -4.383234 9.333137 3.716078 -4.631631 -18.025305 2.350392 -53.978886 -18.959091 -1.718156 8.537170 13.179493 18.549083 -17.385313 -7.686383 4.100063 6.121092 16.835018 6.419858 52.557623 29.252128 3.748384 -1.477552 -10.078501 6.427784 14.906593 0.768924 6.202166 5.779658 0.000000 3.498602 0.000000 5.225622 -2.182026 0.453183 0.000000 -5.788636 0.000000 -4.366828 3.778365 -4.028063 0.000000 7.596520 0.000000 -6.993780 -0.576381 3.355765 0.000000 -10.223721 0.000000
-4.984890 93.811224 -41.754599 -2.716812 -2.939051 -1.146613 0.170150 1.509960 -0.108061 0.224274 1.599170 -0.096036 0.339715 1.669441 -0.122903 0.379913 1.704058 -0.058257 0.953529 -4.241185 0.945297 0.840253 -5.423120 -4.381259 9.330812 3.716785 -4.643156 -17.992108 2.360757 -53.940382 -18.975360 -1.779422 8.521989 13.152122 18.603679 -17.392915 -7.673567 4.101971 6.139608 16.896684 6.475198 52.535479 29.257547 3.671456 -1.499568 -10.092002 6.436926 14.864074 0.764630 6.201954 5.781399 0.000000 3.503594 0.000000 5.233560 -2.168195 0.419163 0.000000 -5.805486 0.000000 -4.363013 3.779289 -4.028439 0.000000 7.596138 0.000000 -6.992411 -0.557891 3.383222 0.000000 -10.246339 0.000000
-4.987260 93.810266 -41.751245 -2.715134 -2.937896 -1.147027 0.179158 1.514303 -0.107071 0.232727 1.601024 -0.099287 0.340884 1.675190 -0.129906 0.380610 1.706688 -0.064978 0.945077 -4.254136 0.932640 0.835036 -5.425660 -4.364383 9.334177 3.725395 -4.640715 -18.004222 2.370617 -53.907585 -19.003848 -1.780424 8.519945 13.182483 18.559848 -17.401858 -7.685296 4.094245 6.131736 16.912287 6.487677 52.541121 29.269968 3.636147 -1.488335 -10.115227 6.447200 14.810626 0.753102 6.205140 5.782784 0.000000 3.504272 0.000000 5.234891 -2.178203 0.410810 0.000000 -5.792121 0.000000 -4.372991 3.778984 -4.026942 0.000000 7.596473 0.000000 -6.999240 -0.567752 3.402752 0.000000 -10.241064 0.000000
-4.988762 93.808423 -41.748694 -2.715509 -2.937118 -1.146871 0.178811 1.516110 -0.107332 0.232156 1.600344 -0.103257 0.345023 1.677268 -0.136321 0.384371 1.707309 -0.069938 0.958140 -4.229310 0.934661 0.843107 -5.417758 -4.408310 9.333534 3.737915 -4.635572 -17.998759 2.378469 -53.894219 -19.016599 -1.836144 8.541523 13.139839 18.580504 -17.429744 -7.676322 4.102465 6.125176 16.901252 6.466638 52.540282 29.268884 3.609388 -1.481436 -10.107072 6.464512 14.849319 0.758210 6.204605 5.783482 0.000000 3.503440 0.000000 5.244122 -2.173894 0.395129 0.000000 -5.801593 0.000000 -4.369947 3.780560 -4.026052 0.000000 7.596571 0.000000 -6.994477 -0.570161 3.367784 0.000000 -10.249157 0.000000
-4.989195 93.810114 -41.745529 -2.720504 -2.938375 -1.152549 0.189746 1.525199 -0.112436 0.241239 1.604478 -0.100045 0.332219 1.682415 -0.130345 0.371209 1.705434 -0.071373 0.955696 -4.236100 0.902794 0.839685 -5.425854 -4.396339 9.353483 3.742129 -4.664506 -17.949222 2.385335 -53.861771 -19.051025 -1.789250 8.546896 13.165420 18.604801 -17.444362 -7.662127 4.099432 6.117383 16.955217 6.498103 52.536315 29.269282 3.605634 -1.505572 -10.096165 6.403418 14.865738 0.749439 6.210108 5.788172 0.000000 3.503836 0.000000 5.247907 -2.181617 0.432635 0.000000 -5.801419 0.000000 -4.373491 3.777529 -4.021798 0.000000 7.612901 0.000000 -6.987348 -0.576560 3.342576 0.000000 -10.219017 0.000000
-4.988734 93.810522 -41.742627 -2.725042 -2.938215 -1.152020 0.193253 1.525747 -0.111061 0.243968 1.621633 -0.100946 0.339008 1.670119 -0.131862 0.377722 1.706281 -0.077653 0.948822 -4.227086 0.892524 0.838669 -5.439012 -4.424249 9.345619 3.763710 -4.672738 -17.952829 2.387743 -53.839221 -19.053731 -1.815331 8.557992 13.152722 18.604266 -17.467726 -7.650598 4.134533 6.122621 16.890481 6.443737 52.514829 29.302950 3.700633 -1.505343 -10.100064 6.383448 14.886835 0.743317 6.210641 5.786696 0.000000 3.510628 0.000000 5.260109 -2.181858 0.409178 0.000000 -5.785329 0.000000 -4.365845 3.779758 -4.022844 0.000000 7.606083 0.000000 -6.989646 -0.570509 3.368180 0.000000 -10.238569 0.000000
-4.989376 93.808856 -41.739761 -2.726689 -2.937137 -1.151523 0.198592 1.534616 -0.111913 0.248947 1.618270 -0.104476 0.342530 1.675186 -0.137610 0.380856 1.703199 -0.082120 0.938045 -4.233448 0.886508 0.834219 -5.438255 -4.428321 9.365597 3.747218 -4.671389 -17.979036 2.423576 -53.833090 -19.057764 -1.806367 8.569854 13.161801 18.579943 -17.479453 -7.652645 4.135787 6.111298 16.878112 6.427554 52.524709 29.315947 3.628224 -1.489064 -10.117136 6.463663 14.823753 0.743953 6.211605 5.786083 0.000000 3.511781 0.000000 5.260625 -2.191700 0.413036 0.000000 -5.783485 0.000000 -4.372038 3.780188 -4.021030 0.000000 7.605968 0.000000 -6.987395 -0.579735 3.342201 0.000000 -10.220664 0.000000
-4.990018 93.809436 -41.735831 -2.731631 -2.936811 -1.149440 0.204330 1.538179 -0.119402 0.253352 1.618250 -0.105575 0.350285 1.678015 -0.133581 0.387421 1.697515 -0.074560 0.942568 -4.211039 0.833586 0.830071 -5.454174 -4.398415 9.349272 3.767015 -4.687615 -17.939782 2.402088 -53.830729 -19.062355 -1.848832 8.578560 13.189890 18.643820 -17.409692 -7.653319 4.144251 6.105475 16.861157 6.428491 52.516690 29.335325 3.689211 -1.517569 -10.096750 6.461348 14.879477 0.752808 6.209798 5.783384 0.000000 3.518775 0.000000 5.253567 -2.194817 0.450734 0.000000 -5.801390 0.000000 -4.366745 3.783487 -4.024068 0.000000 7.600266 0.000000 -6.981583 -0.578917 3.335607 0.000000 -10.230314 0.000000
